<svg xmlns="http://www.w3.org/2000/svg" viewBox="0 0 329.84 455.14"><defs><style>.cls-1,.cls-10,.cls-2,.cls-3{fill:none;}.cls-1{stroke:#f9f9f9;}.cls-1,.cls-10,.cls-11,.cls-2,.cls-3{stroke-linecap:round;}.cls-1,.cls-2,.cls-3,.cls-4,.cls-6,.cls-8{stroke-miterlimit:10;}.cls-1,.cls-3{stroke-width:17.15px;}.cls-2{stroke:#b3b3b3;stroke-width:9.8px;}.cls-10,.cls-11,.cls-3,.cls-4,.cls-6,.cls-8{stroke:#fff;}.cls-11,.cls-4{fill:#c24e00;}.cls-4{stroke-width:4.9px;}.cls-5{fill:#a14000;}.cls-6{fill:#ebebeb;}.cls-10,.cls-6,.cls-8{stroke-width:5.27px;}.cls-7{fill:#b3b3b3;}.cls-8{fill:#545454;}.cls-9{fill:#404040;}.cls-10,.cls-11{stroke-linejoin:round;}.cls-11{stroke-width:5.5px;}.cls-12{fill:#8e3900;}</style></defs><g id="Layer_1" data-name="Layer 1"><path class="cls-1" d="M677.9,720.92s4.2,7.14,4.2,30.12" transform="translate(-547.13 -304.48)"/><path class="cls-2" d="M677.9,721.68s4.2,7.13,4.2,30.11" transform="translate(-547.13 -304.48)"/><path class="cls-3" d="M594.17,346.62s-1.52-10.58-13.7-33.56" transform="translate(-547.13 -304.48)"/><path class="cls-2" d="M594.17,346.62s-1.52-10.58-13.7-33.56" transform="translate(-547.13 -304.48)"/><path class="cls-4" d="M677.46,383.65c0-59.52-138.86-49.2-127.18,20.49,6.43,38.37,28.46,86.86,36.55,151.28,7,55.47,13.35,140.4,54.29,159.49,26.52,12.37,48.42,8.31,69.71-14.1,28.15-29.62,8.62-135.3,4.55-161.62-3.75-24.27-45-84.28-49.15-132.5C665.44,397.61,677.46,391.87,677.46,383.65Z" transform="translate(-547.13 -304.48)"/><path class="cls-5" d="M666.24,545.12c21.12,105.79,17.7,171.06,17.7,171.06,66.2-13.73,31.54-151.2,27.65-176.38-3.74-24.27-51.72-102.34-47.31-137.39.88-7,11.24-12.4,10.61-20.6-3.6-47.44-73.88-32.19-73.88-32.19S644.81,437.79,666.24,545.12Z" transform="translate(-547.13 -304.48)"/><path class="cls-6" d="M645.72,524.82s39.89-19.23,91.41-59.62c59.77-46.87,74.71-92.76,74.71-92.76L873,407.64s-17,52.38-98.14,96.14C719.73,533.52,645.72,524.82,645.72,524.82Z" transform="translate(-547.13 -304.48)"/><path class="cls-7" d="M655.59,522.73s40.33-21.8,89.58-61.59C796.63,419.56,813.46,376,813.46,376l16.65,10s-18.83,58-77.43,95.52C706.44,511.19,655.59,522.73,655.59,522.73Z" transform="translate(-547.13 -304.48)"/><polygon class="cls-8" points="267.77 68.75 287.22 79.46 325.9 20.07 296.25 7.87 267.77 68.75"/><polygon class="cls-9" points="271.04 67.51 297.83 11.22 310.29 16.52 279.68 72.29 271.04 67.51"/><path class="cls-10" d="M721.55,491.66c44.91-31.54,70.77-57,89.73-88.18" transform="translate(-547.13 -304.48)"/><path class="cls-11" d="M647.32,524.52s56.63-10.37,65.22-12.26c26.77-5.9,72.88-9,111.15,18.37,32.18,23,43.13,51,48.29,76.25,9,44-42.38,85.8-55.6,78.07C801.1,676,815.73,620.17,775,584.56,731.32,546.41,647.32,524.52,647.32,524.52Z" transform="translate(-547.13 -304.48)"/><path class="cls-5" d="M664.84,524.21s49.57-11.71,71-13.71c40.22-3.76,83.34,14.73,101.44,34.33,81,87.74-7.8,135.67-7.8,135.67s27.25-69.59-8.16-106.17C759.76,510.72,664.84,524.21,664.84,524.21Z" transform="translate(-547.13 -304.48)"/><path class="cls-12" d="M634.85,416.3c.67,2.73-14,10.42-34.38,15.42s-38.82,5.41-39.49,2.68c0,0,16.54-4.85,36.94-9.85S634.85,416.3,634.85,416.3Z" transform="translate(-547.13 -304.48)"/><path class="cls-12" d="M677.88,464.64c.66,2.73-14,10.42-34.38,15.42s-38.82,5.41-39.49,2.67c0,0,16.54-4.84,36.94-9.84S677.88,464.64,677.88,464.64Z" transform="translate(-547.13 -304.48)"/><path class="cls-12" d="M667.41,559.4c.52,2.76-14.51,9.66-35.15,13.56s-39.06,3.33-39.58.56c0,0,16.78-3.95,37.42-7.85S667.41,559.4,667.41,559.4Z" transform="translate(-547.13 -304.48)"/><path class="cls-12" d="M771.56,522.73c1.47,1.36-2.91,10.31-11.37,19.51s-17.8,15.17-19.27,13.82c0,0,6.53-7.92,15-17.12S771.56,522.73,771.56,522.73Z" transform="translate(-547.13 -304.48)"/><path class="cls-12" d="M831.89,545.16c1.27,1.53-4.27,9.76-13.87,17.67s-19.62,12.51-20.89,11c0,0,7.53-6.91,17.13-14.82S831.89,545.16,831.89,545.16Z" transform="translate(-547.13 -304.48)"/><path class="cls-12" d="M848.59,616.94c.67,1.88-7.34,7.73-19.06,11.91s-22.7,5.1-23.37,3.22c0,0,9.43-3.94,21.14-8.12S848.59,616.94,848.59,616.94Z" transform="translate(-547.13 -304.48)"/><path class="cls-12" d="M719.73,600.69c.49,2.77-14.63,9.49-35.31,13.15s-39.1,2.86-39.58.09c0,0,16.82-3.75,37.5-7.41S719.73,600.69,719.73,600.69Z" transform="translate(-547.13 -304.48)"/><path class="cls-12" d="M687.21,654.33c.67,2.73-14,10.42-34.37,15.41s-38.83,5.41-39.5,2.68c0,0,16.55-4.85,36.95-9.84S687.21,654.33,687.21,654.33Z" transform="translate(-547.13 -304.48)"/></g></svg>